<svg width="32" height="50" viewBox="0 0 32 50" fill="none" xmlns="http://www.w3.org/2000/svg">
<path d="M7.30955 2.83935L6.40907 3.27426L8.90423 11.7976C8.94365 11.9322 8.87994 12.0756 8.75361 12.1366C8.62192 12.2002 8.46347 12.1547 8.38572 12.0308L3.70765 4.57899L2.35694 5.23135L5.89475 16.9441C6.95751 20.4626 10.9124 22.1992 14.2221 20.6007L23.3245 41.7466L26.9264 40.0069L16.023 19.7309C19.3024 18.1471 20.3422 13.9772 18.1905 11.0391L10.9114 1.09972L9.56073 1.75208L12.9233 9.83028C12.9802 9.96691 12.9204 10.1242 12.7871 10.1885C12.6644 10.2478 12.5168 10.2097 12.4381 10.0983L7.30955 2.83935Z" fill="#C4C4C4"/>
</svg>